<?xml version="1.0" encoding="utf-8"?>
<!-- Generator: Adobe Illustrator 17.0.1, SVG Export Plug-In . SVG Version: 6.00 Build 0)  -->
<!DOCTYPE svg PUBLIC "-//W3C//DTD SVG 1.1//EN" "http://www.w3.org/Graphics/SVG/1.1/DTD/svg11.dtd">
<svg version="1.1" id="Livello_1" xmlns="http://www.w3.org/2000/svg" xmlns:xlink="http://www.w3.org/1999/xlink" x="0px" y="0px"
	 width="128px" height="128px" viewBox="0 0 128 128" enable-background="new 0 0 128 128" xml:space="preserve">
<path fill="#E50372" d="M125.592,114.043c0,6.378-5.17,11.548-11.548,11.548H13.957c-6.378,0-11.548-5.17-11.548-11.548V13.957
	c0-6.378,5.17-11.548,11.548-11.548h100.087c6.378,0,11.548,5.17,11.548,11.548V114.043z"/>
<g>
	<defs>
		<rect id="SVGID_1_" y="-546.252" width="798.101" height="500"/>
	</defs>
	<clipPath id="SVGID_2_">
		<use xlink:href="#SVGID_1_"  overflow="visible"/>
	</clipPath>
	<g clip-path="url(#SVGID_2_)">
		<g>
		</g>
		<circle fill="#00EBAD" cx="351.999" cy="-278.244" r="358.6"/>
	</g>
</g>
<path fill="none" stroke="#FFFFFF" stroke-width="2.5546" stroke-miterlimit="10" d="M110.265,21.541H17.75
	c-3.469,0-6.281,2.812-6.281,6.281v60.04c0,3.469,2.812,6.281,6.281,6.281h79.256l19.54,12.538V87.862v-5.606v-2.094v-52.34
	C116.546,24.353,113.734,21.541,110.265,21.541z"/>
<g>
	<path fill="#FFFFFF" d="M86.739,63.606c-0.637-1.488-1.963-2.611-3.571-2.91c-1.183-0.231-3.096-1.17-5.456-4.343
		c-0.835,0.374-1.737,0.599-2.689,0.635c1.553,2.291,3.138,3.968,4.76,5.016L47.097,75.998c0.605-3.852-0.498-9.227-3.429-16.074
		c-3.874-9.05,0.244-14.899,4.327-18.197l0.06-0.025c0,0,1.131-0.978,2.977-1.768c0.953-0.408,2.016-0.722,3.3-0.849l0.06-0.026
		c1.963-0.256,4.191-0.264,6.413,0.309c0.359-0.821,0.821-1.601,1.374-2.306c-2.344-0.729-4.643-0.867-6.579-0.775
		c-0.093-0.383-0.212-0.825-0.365-1.182c-1.274-2.977-4.676-4.339-7.652-3.064c-2.977,1.274-4.339,4.676-3.064,7.652
		c0.153,0.357,0.391,0.748,0.603,1.08c-3.777,3.519-8.117,10.168-3.834,20.17c4.588,10.717,3.549,15.036,2.468,16.626
		c-0.893,1.369-0.996,3.104-0.384,4.532c1.071,2.501,3.936,3.599,6.377,2.554L59.69,80.4c2.193,3.147,6.3,4.348,9.813,2.844
		c3.513-1.504,5.479-5.304,4.74-9.004l9.943-4.257C86.626,68.938,87.784,66.047,86.739,63.606z M48.601,34.423
		c1.667-0.714,3.538,0.035,4.251,1.702c0.076,0.179,0.127,0.298,0.144,0.502c-2.67,0.509-4.805,1.776-5.894,2.523
		c-0.076-0.179-0.187-0.272-0.263-0.451C46.185,37.007,46.934,35.136,48.601,34.423z M68.483,80.862
		c-2.203,0.943-4.805,0.296-6.326-1.448l9.645-4.129C72.013,77.589,70.685,79.919,68.483,80.862z M83.166,67.602L48.753,82.334
		c-1.131,0.484-2.492-0.06-2.976-1.192c-0.255-0.595-0.246-1.233,0.052-1.854l37.271-15.956c0.595,0.238,1.122,0.647,1.377,1.242
		C84.842,65.757,84.297,67.117,83.166,67.602z"/>
	<path fill="#FFFFFF" d="M47.142,45.826c-0.128,0.196-3.531,4.752-2.172,9.736c0.161,0.706,0.893,1.097,1.598,0.936
		c0.06-0.025,0.119-0.051,0.179-0.076c0.595-0.255,0.893-0.876,0.757-1.522c-1.028-3.717,1.687-7.415,1.746-7.44
		c0.468-0.553,0.315-1.403-0.271-1.786C48.376,45.087,47.585,45.214,47.142,45.826z"/>
</g>
<path fill="#FFFFFF" d="M73.67,57.952c-8.202,0-14.874-6.673-14.874-14.874s6.673-14.874,14.874-14.874s14.874,6.673,14.874,14.874
	S81.871,57.952,73.67,57.952z M73.67,31.043c-6.636,0-12.034,5.399-12.034,12.034s5.399,12.034,12.034,12.034
	c6.636,0,12.034-5.399,12.034-12.034S80.305,31.043,73.67,31.043z"/>
<g>
	<path fill="#FFFFFF" d="M75.651,34.679V50.76h-3.455V38.584c-0.19,0.168-0.415,0.327-0.675,0.477
		c-0.26,0.15-0.536,0.285-0.828,0.406c-0.293,0.12-0.596,0.223-0.911,0.307c-0.314,0.084-0.625,0.144-0.932,0.181v-2.918
		c0.9-0.263,1.748-0.6,2.545-1.009c0.797-0.41,1.518-0.859,2.161-1.349H75.651z"/>
</g>
</svg>
